<svg data-name="Layer 1" xmlns="http://www.w3.org/2000/svg" viewBox="0 0 194.45 174.12"><path d="M135.15 2.5H59.29a18.85 18.85 0 00-16.33 9.43L5.02 77.63a18.86 18.86 0 000 18.86l37.94 65.7a18.85 18.85 0 0016.33 9.43h75.86a18.85 18.85 0 0016.33-9.43l37.94-65.7a18.86 18.86 0 000-18.86l-37.94-65.7a18.85 18.85 0 00-16.33-9.43z" fill="none" stroke="#f4d78e" stroke-miterlimit="10" stroke-width="5"/><path d="M60.86 123.15V50.97A8.46 8.46 0 0173.1 43.4l72.18 36.09a8.46 8.46 0 010 15.14L73.1 130.72a8.46 8.46 0 01-12.24-7.57z" fill="#f4d78e"/></svg>