<svg data-name="Layer 2" xmlns="http://www.w3.org/2000/svg" viewBox="63 60 45 45"><defs><linearGradient id="a" x1="74.83" y1="66.2" x2="95.19" y2="101.45" gradientUnits="userSpaceOnUse"><stop offset="0" stop-color="#efd490"/><stop offset=".06" stop-color="#bea872"/><stop offset=".15" stop-color="#857650"/><stop offset=".23" stop-color="#554c33"/><stop offset=".31" stop-color="#302b1d"/><stop offset=".38" stop-color="#16130d"/><stop offset=".44" stop-color="#060503"/><stop offset=".49"/><stop offset=".55" stop-color="#040403"/><stop offset=".62" stop-color="#110f0a"/><stop offset=".69" stop-color="#262217"/><stop offset=".75" stop-color="#443d29"/><stop offset=".82" stop-color="#6b5f40"/><stop offset=".89" stop-color="#9a885d"/><stop offset=".96" stop-color="#d0b97e"/><stop offset="1" stop-color="#efd490"/></linearGradient></defs><path d="M104 85.35l-8.21 14.77a3.31 3.31 0 01-2.53 1.52H76.8a3 3 0 01-1.44-.46 3.08 3.08 0 01-1.09-1.06l-8.21-14.77a3.61 3.61 0 010-3l8.21-14.77A3.31 3.31 0 0176.8 66h16.42a3.31 3.31 0 012.53 1.52L104 82.3a3.61 3.61 0 010 3.05z" stroke-miterlimit="10" stroke="url(#a)"/><path d="M84.51 86.42l1.61-1.92q6.5-7.86 13-15.7c1-1.18 1.92-2.38 2.93-3.53a8.82 8.82 0 011.51-1.27 1.72 1.72 0 01.91-.21.94.94 0 01.94.9 3.77 3.77 0 01-.72 2.52l-9.61 15q-3.7 5.76-7.4 11.51a3.41 3.41 0 01-5.6.43c-2-2.29-3.94-4.61-5.91-6.91-.84-1-1.73-1.93-2.48-3A3.36 3.36 0 0176 78.89a3.4 3.4 0 013.11 1.28l5 5.82a5.15 5.15 0 00.4.43z" fill="#fff"/></svg>