<svg id="Layer_2" data-name="Layer 2" xmlns="http://www.w3.org/2000/svg" viewBox="60 65 50 37"><defs><linearGradient id="Безымянный_градиент_152" x1="104.87" y1="83.83" x2="66.3" y2="83.83" gradientUnits="userSpaceOnUse"><stop offset="0" stop-color="#c5a774"/><stop offset=".12" stop-color="#b59a6b"/><stop offset=".26" stop-color="#a78f63"/><stop offset=".41" stop-color="#8c7855"/><stop offset=".56" stop-color="#665840"/><stop offset=".72" stop-color="#40382b"/><stop offset=".89" stop-color="#363026"/><stop offset="1" stop-color="#29261f"/></linearGradient><style>.cls-2{fill:#fff}</style></defs><path d="M104.53 85.35l-8.21 14.77a3.29 3.29 0 01-2.53 1.52H77.37a2.93 2.93 0 01-1.43-.46 3 3 0 01-1.1-1.06l-8.21-14.77a3.61 3.61 0 010-3l8.21-14.77A3.31 3.31 0 0177.37 66h16.42a3.29 3.29 0 012.53 1.52l8.21 14.77a3.61 3.61 0 010 3.06z" fill="url(#Безымянный_градиент_152)"/><path class="cls-2" d="M79.52 75.24l-1.86 2 6.09 6.59-6.09 6.58 1.86 2 7.94-8.58-7.94-8.59z" id="chevron-right"/><path class="cls-2" d="M91.65 75.24l1.85 2-6.1 6.59 6.1 6.58-1.85 2-7.96-8.58 7.96-8.59z" id="chevron-right-2" data-name="chevron-right"/></svg>