<svg id="Layer_2" data-name="Layer 2" xmlns="http://www.w3.org/2000/svg" viewBox="23 35 60 30"><defs><style>.cls-1{fill:#fff}</style></defs><path class="cls-1" d="M74.08 40.26c-.18.46-1.53 1.39-5.8 2.18a85.87 85.87 0 01-14.92 1.15 86 86 0 01-14.94-1.15c-4.43-.82-5.71-1.79-5.79-2.23 0-.12.1-.24.16-.36A4.06 4.06 0 0136 37.7a3.62 3.62 0 01.27-1l.5-.76c.11-.14.23-.29.33-.44a4.15 4.15 0 012.9-1.19 4 4 0 01.49 0A4.16 4.16 0 0146 32.67 4.15 4.15 0 0149.33 31a4.4 4.4 0 011.2.17 4.21 4.21 0 015.63 0 4.4 4.4 0 011.2-.17 4.12 4.12 0 013.37 1.72 4.18 4.18 0 011.87-.44 4.11 4.11 0 013.62 2.11 4 4 0 01.49 0 4.22 4.22 0 011.79.4 3.39 3.39 0 011.87 2.18 2.58 2.58 0 00.23.54 1 1 0 00.19.21 2.94 2.94 0 00.79.28 3.7 3.7 0 011.1.52 3.88 3.88 0 011.18 1.34 5.11 5.11 0 01.22.4z"/><path class="cls-1" d="M78.53 57.32c-2.53 2.15-12.85 3.76-25.17 3.76s-22.62-1.61-25.17-3.76a1.47 1.47 0 01-.47-1.54L31.85 41c2 2.67 13.53 3.66 21.51 3.66s19.49-1 21.5-3.66L79 55.78a1.47 1.47 0 01-.47 1.54zM32.79 39.85c-.06.12-.11.24-.16.36a.5.5 0 01.16-.36z"/></svg>