<svg data-name="Layer 2" xmlns="http://www.w3.org/2000/svg" viewBox="23 35 60 20"><path d="M77.45 36.42a4.22 4.22 0 00-3-1.22h-.51a4.28 4.28 0 00-3.12 2l-.08.14A5.65 5.65 0 0165.93 40H40.79A5.64 5.64 0 0136 37.36l-.08-.14a4.3 4.3 0 00-3.12-2 4.53 4.53 0 00-.52 0 4.21 4.21 0 00-3 1.22l-2.12 2a4.29 4.29 0 001.07 6.9.63.63 0 01.35.52.61.61 0 01-.27.56l-.56.39a4.28 4.28 0 00-.07 7l1.76 1.28a4.24 4.24 0 002.52.82 4.47 4.47 0 00.82-.07 4.31 4.31 0 002.82-2l.38-.61a5.64 5.64 0 014.82-2.68h25.13a5.62 5.62 0 014.81 2.68l.39.61a4.29 4.29 0 002.81 2 4.54 4.54 0 00.82.07 4.2 4.2 0 002.52-.82l1.77-1.28a4.28 4.28 0 00-.07-7l-.57-.39a.64.64 0 01.08-1.08 4.28 4.28 0 001.07-6.9z" fill="#f4d78e"/></svg>