<svg id="Layer_2" data-name="Layer 2" xmlns="http://www.w3.org/2000/svg" viewBox="25 35 60 30"><defs><style>.cls-1{fill:#fff}</style></defs><path class="cls-1" d="M76.78 41.21c-.27.49-1.7 1.38-5.86 2.15a87.23 87.23 0 01-15.14 1.17 87.43 87.43 0 01-15.19-1.13c-4.14-.77-5.57-1.66-5.84-2.15v-.07l.15-.15a5.38 5.38 0 013.21-1 1.05 1.05 0 01.28-.47l.5-.36.34-.22a7.33 7.33 0 013-.58h.5a5.93 5.93 0 013.67-1 8.92 8.92 0 011.9.21 6.52 6.52 0 013.42-.82 9.62 9.62 0 011.22.08 8.12 8.12 0 015.72 0 9.58 9.58 0 011.21-.08 6.5 6.5 0 013.43.82 8.85 8.85 0 011.9-.21 5.93 5.93 0 013.67 1h.5a8.91 8.91 0 011.82.19A2.9 2.9 0 0173 39.6a1.16 1.16 0 00.24.26.5.5 0 00.19.1 5.27 5.27 0 00.8.14 5.84 5.84 0 011.11.25 3.45 3.45 0 011.2.64 1.52 1.52 0 01.24.22z"/><path class="cls-1" d="M81.31 58.51c-2.59 2.18-13 3.81-25.56 3.81s-23-1.63-25.55-3.81a1.53 1.53 0 01-.48-1.57l4.2-15c2 2.71 13.73 3.72 21.84 3.72s19.78-1 21.83-3.72l4.2 15a1.51 1.51 0 01-.48 1.57z"/></svg>