<?xml version="1.0" encoding="utf-8"?>
<!-- Generator: Adobe Illustrator 23.1.1, SVG Export Plug-In . SVG Version: 6.00 Build 0)  -->
<svg preserveAspectRatio="none" version="1.1" id="Группа_1" xmlns="http://www.w3.org/2000/svg" xmlns:xlink="http://www.w3.org/1999/xlink" x="0px"
	 y="0px" viewBox="0 0 608.4 365.1" style="enable-background:new 0 0 608.4 365.1;" xml:space="preserve">
<style type="text/css">
	.st0{fill:url(#SVGID_1_);}
</style>
<linearGradient id="SVGID_1_" gradientUnits="userSpaceOnUse" x1="9.8012" y1="184.5769" x2="591.8013" y2="184.5769">
	<stop  offset="0" style="stop-color:#000000"/>
	<stop  offset="1" style="stop-color:#C7A975"/>
</linearGradient>
<path class="st0" d="M585.9,171.9L506.8,22.2c-3.3-4.3-8.2-6.5-13.9-7c-0.3,0-0.7-0.1-1.1-0.1h0c-0.9,0-1.9,0-2.8,0l-467.1,0
	c-6.6,0-12,5.4-12,12v315c0,6.6,5.4,12,12,12h458c0.6,0,1.1-0.1,1.6-0.1c10.6,0.7,20.4-1.9,25.9-9l78.5-137.7
	C593.8,196.8,593.8,182.2,585.9,171.9z"/>
</svg>
