<svg id="Layer_1" data-name="Layer 1" xmlns="http://www.w3.org/2000/svg" viewBox="0 0 194.45 174.12"><defs><style>.cls-1{fill:none;stroke:#f4d78e;stroke-miterlimit:10;stroke-width:5px;}.cls-2{fill:#f4d78e;}</style></defs><title>BButton</title><path class="cls-1" d="M152.93,30.44H77.07a18.85,18.85,0,0,0-16.33,9.43L22.8,105.57a18.86,18.86,0,0,0,0,18.86l37.94,65.7a18.85,18.85,0,0,0,16.33,9.43h75.86a18.85,18.85,0,0,0,16.33-9.43l37.94-65.7a18.86,18.86,0,0,0,0-18.86l-37.94-65.7A18.85,18.85,0,0,0,152.93,30.44Z" transform="translate(-17.78 -27.94)"/><path class="cls-2" d="M78.64,151.09V78.91a8.46,8.46,0,0,1,12.24-7.57l72.18,36.09a8.46,8.46,0,0,1,0,15.14L90.88,158.66A8.46,8.46,0,0,1,78.64,151.09Z" transform="translate(-17.78 -27.94)"/></svg>