<svg preserveAspectRatio="none" xmlns="http://www.w3.org/2000/svg" width="24" height="15.273" viewBox="0 0 24 15.273">
  <g id="Group_103" data-name="Group 103" transform="translate(-175 -129)">
    <path id="grip-lines" d="M23.25,160H.75a.752.752,0,0,0-.75.75v1.5a.752.752,0,0,0,.75.75h22.5a.752.752,0,0,0,.75-.75v-1.5A.752.752,0,0,0,23.25,160Z" transform="translate(175 -31)" fill="#fff"/>
    <path id="grip-lines-2" data-name="grip-lines" d="M23.25,160H.75a.752.752,0,0,0-.75.75v1.5a.752.752,0,0,0,.75.75h22.5a.752.752,0,0,0,.75-.75v-1.5A.752.752,0,0,0,23.25,160Z" transform="translate(175 -24.864)" fill="#fff"/>
    <path id="grip-lines-3" data-name="grip-lines" d="M23.25,160H.75a.752.752,0,0,0-.75.75v1.5a.752.752,0,0,0,.75.75h22.5a.752.752,0,0,0,.75-.75v-1.5A.752.752,0,0,0,23.25,160Z" transform="translate(175 -18.727)" fill="#fff"/>
  </g>
</svg>
