<svg id="Layer_2" data-name="Layer 2" xmlns="http://www.w3.org/2000/svg" xmlns:xlink="http://www.w3.org/1999/xlink" viewBox="63 60 45 45"><defs><style>.cls-1{fill:#000;stroke-miterlimit:10;stroke:url(#Безымянный_градиент_117);}.cls-2{fill:#fff;}</style><linearGradient id="Безымянный_градиент_117" x1="74.83" y1="66.2" x2="95.19" y2="101.45" gradientUnits="userSpaceOnUse"><stop offset="0" stop-color="#efd490"/><stop offset="0.06" stop-color="#bea872"/><stop offset="0.15" stop-color="#857650"/><stop offset="0.23" stop-color="#554c33"/><stop offset="0.31" stop-color="#302b1d"/><stop offset="0.38" stop-color="#16130d"/><stop offset="0.44" stop-color="#060503"/><stop offset="0.49"/><stop offset="0.55" stop-color="#040403"/><stop offset="0.62" stop-color="#110f0a"/><stop offset="0.69" stop-color="#262217"/><stop offset="0.75" stop-color="#443d29"/><stop offset="0.82" stop-color="#6b5f40"/><stop offset="0.89" stop-color="#9a885d"/><stop offset="0.96" stop-color="#d0b97e"/><stop offset="1" stop-color="#efd490"/></linearGradient></defs><title>check</title><path class="cls-1" d="M104,85.35l-8.21,14.77a3.31,3.31,0,0,1-2.53,1.52H76.8a3,3,0,0,1-1.44-.46,3.08,3.08,0,0,1-1.09-1.06L66.06,85.35a3.61,3.61,0,0,1,0-3l8.21-14.77A3.31,3.31,0,0,1,76.8,66H93.22a3.31,3.31,0,0,1,2.53,1.52L104,82.3A3.61,3.61,0,0,1,104,85.35Z"/><path class="cls-2" d="M84.51,86.42l1.61-1.92q6.5-7.86,13-15.7c1-1.18,1.92-2.38,2.93-3.53A8.82,8.82,0,0,1,103.56,64a1.72,1.72,0,0,1,.91-.21.94.94,0,0,1,.94.9,3.77,3.77,0,0,1-.72,2.52l-9.61,15q-3.7,5.76-7.4,11.51a3.41,3.41,0,0,1-5.6.43c-2-2.29-3.94-4.61-5.91-6.91-.84-1-1.73-1.93-2.48-3A3.36,3.36,0,0,1,76,78.89a3.4,3.4,0,0,1,3.11,1.28l5,5.82A5.15,5.15,0,0,0,84.51,86.42Z"/></svg>