<svg id="Layer_2" data-name="Layer 2" xmlns="http://www.w3.org/2000/svg" xmlns:xlink="http://www.w3.org/1999/xlink" viewBox="60 65 50 37"><defs><style>.cls-1{fill:url(#Безымянный_градиент_152);}.cls-2{fill:#fff;}</style><linearGradient id="Безымянный_градиент_152" x1="104.87" y1="83.83" x2="66.3" y2="83.83" gradientUnits="userSpaceOnUse"><stop offset="0" stop-color="#c5a774"/><stop offset="0.12" stop-color="#b59a6b"/><stop offset="0.26" stop-color="#a78f63"/><stop offset="0.41" stop-color="#8c7855"/><stop offset="0.56" stop-color="#665840"/><stop offset="0.72" stop-color="#40382b"/><stop offset="0.89" stop-color="#363026"/><stop offset="1" stop-color="#29261f"/></linearGradient></defs><title>close</title><path class="cls-1" d="M104.53,85.35l-8.21,14.77a3.29,3.29,0,0,1-2.53,1.52H77.37a2.93,2.93,0,0,1-1.43-.46,3,3,0,0,1-1.1-1.06L66.63,85.35a3.61,3.61,0,0,1,0-3l8.21-14.77A3.31,3.31,0,0,1,77.37,66H93.79a3.29,3.29,0,0,1,2.53,1.52l8.21,14.77A3.61,3.61,0,0,1,104.53,85.35Z"/><g id="chevron-right"><polygon class="cls-2" points="79.52 75.24 77.66 77.24 83.75 83.83 77.66 90.41 79.52 92.41 87.46 83.83 79.52 75.24"/></g><g id="chevron-right-2" data-name="chevron-right"><polygon class="cls-2" points="91.65 75.24 93.5 77.24 87.4 83.83 93.5 90.41 91.65 92.41 83.69 83.83 91.65 75.24"/></g></svg>