<svg id="Layer_2" data-name="Layer 2" xmlns="http://www.w3.org/2000/svg" xmlns:xlink="http://www.w3.org/1999/xlink" viewBox="65 65 40 40"><defs><style>.cls-1{fill:url(#Безымянный_градиент_152);}</style><linearGradient id="Безымянный_градиент_152" x1="104.3" y1="83.83" x2="65.72" y2="83.83" gradientUnits="userSpaceOnUse"><stop offset="0" stop-color="#c5a774"/><stop offset="0.12" stop-color="#b59a6b"/><stop offset="0.26" stop-color="#a78f63"/><stop offset="0.41" stop-color="#8c7855"/><stop offset="0.56" stop-color="#665840"/><stop offset="0.72" stop-color="#40382b"/><stop offset="0.89" stop-color="#363026"/><stop offset="1" stop-color="#29261f"/></linearGradient></defs><title>frame-05-02-02</title><path class="cls-1" d="M104,85.35l-8.21,14.77a3.31,3.31,0,0,1-2.53,1.52H76.8a3,3,0,0,1-1.44-.46,3.08,3.08,0,0,1-1.09-1.06L66.06,85.35a3.61,3.61,0,0,1,0-3l8.21-14.77A3.31,3.31,0,0,1,76.8,66H93.22a3.31,3.31,0,0,1,2.53,1.52L104,82.3A3.61,3.61,0,0,1,104,85.35Z"/></svg>