<svg id="Layer_2" data-name="Layer 2" xmlns="http://www.w3.org/2000/svg" viewBox="25 35 60 30"><defs><style>.cls-1{fill:#fff;}</style></defs><title>icon_1</title><path class="cls-1" d="M76.78,41.21l0,0c-.27.49-1.7,1.38-5.86,2.15a87.23,87.23,0,0,1-15.14,1.17A87.43,87.43,0,0,1,40.59,43.4c-4.14-.77-5.57-1.66-5.84-2.15l0-.07.15-.15a5.38,5.38,0,0,1,3.21-1,1.05,1.05,0,0,1,.28-.47h0l.5-.36.34-.22h0a7.33,7.33,0,0,1,3-.58l.5,0a5.93,5.93,0,0,1,3.67-1,8.92,8.92,0,0,1,1.9.21,6.52,6.52,0,0,1,3.42-.82,9.62,9.62,0,0,1,1.22.08,8.12,8.12,0,0,1,5.72,0,9.58,9.58,0,0,1,1.21-.08,6.5,6.5,0,0,1,3.43.82,8.85,8.85,0,0,1,1.9-.21,5.93,5.93,0,0,1,3.67,1l.5,0a8.91,8.91,0,0,1,1.82.19A2.9,2.9,0,0,1,73,39.6a1.16,1.16,0,0,0,.24.26.5.5,0,0,0,.19.1,5.27,5.27,0,0,0,.8.14,5.84,5.84,0,0,1,1.11.25,3.45,3.45,0,0,1,1.2.64A1.52,1.52,0,0,1,76.78,41.21Z"/><path class="cls-1" d="M81.31,58.51c-2.59,2.18-13,3.81-25.56,3.81s-23-1.63-25.55-3.81a1.53,1.53,0,0,1-.48-1.57l4.2-15c2,2.71,13.73,3.72,21.84,3.72s19.78-1,21.83-3.72l4.2,15A1.51,1.51,0,0,1,81.31,58.51Z"/></svg>