<?xml version="1.0" encoding="UTF-8"?>
<svg width="103px" height="327px" viewBox="0 0 103 327" version="1.1" xmlns="http://www.w3.org/2000/svg" xmlns:xlink="http://www.w3.org/1999/xlink">
    <!-- Generator: Sketch 59.1 (86144) - https://sketch.com -->
    <title>Group</title>
    <desc>Created with Sketch.</desc>
    <g id="Page-1" stroke="none" stroke-width="1" fill="none" fill-rule="evenodd">
        <g id="Group" transform="translate(0.763871, 0.000000)" fill="#000000" fill-rule="nonzero">
            <path d="M102.236129,163 L0,163 C6.37043179,166.096296 11.0427168,169.114566 14.0168551,172.054809 C15.0297585,173.056169 16.3806773,174.562562 17.5016011,176.042052 C18.9485276,177.951827 21.2267368,181.624104 24.3362287,187.058882 L99.6167905,318.747844 C100.343437,320.254166 100.863948,321.496955 101.178322,322.47621 C101.492697,323.455465 101.845299,324.932362 102.236129,326.906902 L102.236129,163 Z" id="Path" transform="translate(51.118064, 244.953451) scale(1, -1) translate(-51.118064, -244.953451) "></path>
            <path d="M102.236129,0 L0,0 C6.37043179,3.09629589 11.0427168,6.11456571 14.0168551,9.05480946 C15.0297585,10.0561693 16.3806773,11.5625623 17.5016011,13.0420518 C18.9485276,14.951827 21.2267368,18.6241039 24.3362287,24.0588824 L99.6167905,155.747844 C100.343437,157.254166 100.863948,158.496955 101.178322,159.47621 C101.492697,160.455465 101.845299,161.932362 102.236129,163.906902 L102.236129,0 Z" id="Path"></path>
        </g>
    </g>
</svg>